<svg width="161" height="25" fill="none" xmlns="http://www.w3.org/2000/svg"><path d="M12.872 6.432a5.14 5.14 0 01-.648 2.52c-.416.784-1.08 1.416-1.992 1.896-.896.48-2.032.72-3.408.72H4.016V18H.656V1.248h6.168c1.296 0 2.4.224 3.312.672.912.448 1.592 1.064 2.04 1.848.464.784.696 1.672.696 2.664zM6.68 8.856c.928 0 1.616-.208 2.064-.624.448-.432.672-1.032.672-1.8 0-1.632-.912-2.448-2.736-2.448H4.016v4.872H6.68zm7.714 2.448c0-1.344.264-2.536.792-3.576.544-1.04 1.272-1.84 2.184-2.4.928-.56 1.96-.84 3.096-.84.992 0 1.856.2 2.592.6.752.4 1.352.904 1.8 1.512V4.704h3.384V18h-3.384v-1.944c-.432.624-1.032 1.144-1.8 1.56-.752.4-1.624.6-2.616.6a5.71 5.71 0 01-3.072-.864c-.912-.576-1.64-1.384-2.184-2.424-.528-1.056-.792-2.264-.792-3.624zm10.464.048c0-.816-.16-1.512-.48-2.088-.32-.592-.752-1.04-1.296-1.344a3.397 3.397 0 00-1.752-.48c-.624 0-1.2.152-1.728.456-.528.304-.96.752-1.296 1.344-.32.576-.48 1.264-.48 2.064s.16 1.504.48 2.112c.336.592.768 1.048 1.296 1.368.544.32 1.12.48 1.728.48.624 0 1.208-.152 1.752-.456.544-.32.976-.768 1.296-1.344.32-.592.48-1.296.48-2.112zm19.385-6.648l-8.232 19.584h-3.576l2.88-6.624-5.328-12.96h3.768l3.432 9.288 3.48-9.288h3.576zm5.171 1.944c.432-.64 1.024-1.16 1.776-1.56.768-.4 1.64-.6 2.616-.6 1.136 0 2.16.28 3.072.84.928.56 1.656 1.36 2.184 2.4.544 1.024.816 2.216.816 3.576 0 1.36-.272 2.568-.816 3.624-.528 1.04-1.256 1.848-2.184 2.424-.912.576-1.936.864-3.072.864-.992 0-1.864-.192-2.616-.576-.736-.4-1.328-.912-1.776-1.536V18h-3.36V.24h3.36v6.408zm7.032 4.656c0-.8-.168-1.488-.504-2.064-.32-.592-.752-1.04-1.296-1.344a3.403 3.403 0 00-1.728-.456c-.608 0-1.184.16-1.728.48-.528.304-.96.752-1.296 1.344-.32.592-.48 1.288-.48 2.088s.16 1.496.48 2.088c.336.592.768 1.048 1.296 1.368a3.49 3.49 0 001.728.456c.624 0 1.2-.16 1.728-.48a3.45 3.45 0 001.296-1.368c.336-.592.504-1.296.504-2.112zm5.01 0c0-1.344.264-2.536.792-3.576.544-1.04 1.272-1.84 2.184-2.4.928-.56 1.96-.84 3.096-.84.992 0 1.856.2 2.592.6.752.4 1.352.904 1.8 1.512V4.704h3.384V18H71.92v-1.944c-.432.624-1.032 1.144-1.8 1.56-.752.4-1.624.6-2.616.6a5.71 5.71 0 01-3.072-.864c-.912-.576-1.64-1.384-2.184-2.424-.528-1.056-.792-2.264-.792-3.624zm10.464.048c0-.816-.16-1.512-.48-2.088-.32-.592-.752-1.04-1.296-1.344a3.397 3.397 0 00-1.752-.48c-.624 0-1.2.152-1.728.456-.528.304-.96.752-1.296 1.344-.32.576-.48 1.264-.48 2.064s.16 1.504.48 2.112c.336.592.768 1.048 1.296 1.368.544.32 1.12.48 1.728.48.624 0 1.208-.152 1.752-.456.544-.32.976-.768 1.296-1.344.32-.592.48-1.296.48-2.112zm5.802 0c0-1.376.28-2.576.84-3.6.56-1.04 1.336-1.84 2.328-2.4.992-.576 2.128-.864 3.408-.864 1.648 0 3.008.416 4.08 1.248 1.088.816 1.816 1.968 2.184 3.456h-3.624c-.192-.576-.52-1.024-.984-1.344-.448-.336-1.008-.504-1.68-.504-.96 0-1.72.352-2.28 1.056-.56.688-.84 1.672-.84 2.952 0 1.264.28 2.248.84 2.952.56.688 1.32 1.032 2.28 1.032 1.36 0 2.248-.608 2.664-1.824h3.624c-.368 1.44-1.096 2.584-2.184 3.432-1.088.848-2.448 1.272-4.08 1.272-1.28 0-2.416-.28-3.408-.84a6.108 6.108 0 01-2.328-2.4c-.56-1.04-.84-2.248-.84-3.624zM100.895 18l-4.512-5.664V18h-3.36V.24h3.36v10.104l4.464-5.64h4.368l-5.856 6.672L105.263 18h-4.368zm16.368-9.984v2.832h-10.176V8.016h10.176zm7.128 7.32h5.52V18h-8.88V1.248h3.36v14.088zm19.056-14.088V3.96h-4.464V18h-3.36V3.96h-4.464V1.248h12.288zm8.307 0c1.76 0 3.304.344 4.632 1.032 1.344.688 2.376 1.672 3.096 2.952.736 1.264 1.104 2.736 1.104 4.416 0 1.68-.368 3.152-1.104 4.416-.72 1.248-1.752 2.216-3.096 2.904-1.328.688-2.872 1.032-4.632 1.032h-5.856V1.248h5.856zm-.12 13.896c1.76 0 3.12-.48 4.08-1.44s1.44-2.312 1.44-4.056c0-1.744-.48-3.104-1.44-4.08-.96-.992-2.32-1.488-4.08-1.488h-2.376v11.064h2.376z" fill="#fff"/></svg>